<svg aria-hidden="true" style="position: absolute; width: 0; height: 0; overflow: hidden;" version="1.1"
    xmlns="http://www.w3.org/2000/svg" xmlns:xlink="http://www.w3.org/1999/xlink">
    <defs>
        <symbol id="icon-icon-exit" viewBox="0 0 34 32">
            <path fill="none" stroke="#fff" style="stroke: var(--color1, #fff)" stroke-linejoin="round"
                stroke-linecap="round" stroke-miterlimit="4" stroke-width="2"
                d="M11.615 1.75h-5.481c-2.422 0-4.385 1.963-4.385 4.385v19.731c0 2.422 1.963 4.385 4.385 4.385h5.481M9.25 16h21.923M31.173 16l-6.577 6.577M31.173 16l-6.577-6.577">
            </path>
        </symbol>
        <symbol id="icon-Logo" viewBox="0 0 115 32">
            <path fill="#fff" style="fill: var(--color1, #fff)"
                d="M17.902 9.471c0.224-0.023 0.455 0 0.673 0.055 0.645 0.161 1.082 0.557 1.414 1.111 0.264-0.028 0.531-0.012 0.79 0.048 0.552 0.137 1.028 0.481 1.327 0.958 0.147 0.235 0.245 0.498 0.288 0.771s0.029 0.552-0.041 0.82c-0.185 0.698-0.627 1.061-1.231 1.409 0.017 0.428 0.010 0.859 0.011 1.287 0 0.271 0.018 0.553-0.008 0.822-0.011 0.114-0.034 0.207-0.093 0.306-0.087 0.062-0.175 0.081-0.281 0.093-0.276 0.033-0.576 0.011-0.854 0.010l-1.641-0.006c-0.584 0.043-1.202 0.002-1.789 0.003-0.391 0-0.831 0.046-1.217 0.003-0.138-0.015-0.197-0.106-0.272-0.207-0.049-0.769-0.007-1.563-0.007-2.335-0.321-0.164-0.595-0.366-0.819-0.649-0.167-0.211-0.29-0.453-0.361-0.712s-0.090-0.529-0.055-0.794c0.084-0.566 0.39-1.076 0.853-1.42 0.458-0.338 0.999-0.476 1.563-0.398 0.079-0.136 0.157-0.273 0.254-0.397 0.376-0.479 0.899-0.702 1.495-0.777zM17.933 10.416c-0.366 0.072-0.682 0.203-0.903 0.52-0.124 0.177-0.237 0.687-0.391 0.765-0.204 0.024-0.418-0.070-0.615-0.113-0.397-0.086-0.846 0.071-1.092 0.39-0.202 0.262-0.298 0.624-0.243 0.95 0.049 0.295 0.229 0.542 0.476 0.71 0.269 0.184 0.569 0.221 0.755 0.51 0.034 0.67 0.009 1.351 0.010 2.023 0.782-0.006 1.564-0.008 2.346-0.005l1.91-0.004c-0-0.34-0.074-2.033 0.085-2.199 0.075-0.078 0.246-0.126 0.347-0.165 0.455-0.177 0.788-0.484 0.829-0.988 0.028-0.333-0.081-0.633-0.305-0.881-0.204-0.226-0.47-0.346-0.777-0.364-0.269-0.016-0.823 0.238-0.993 0.049-0.082-0.092-0.115-0.25-0.157-0.366-0.172-0.476-0.532-0.753-1.039-0.818-0.081-0.011-0.161-0.015-0.243-0.013z">
            </path>
            <path fill="#fff" style="fill: var(--color1, #fff)"
                d="M26.923 6.52c0.169-0.012 0.373-0.010 0.506 0.112 0.125 0.114 0.13 0.296 0.089 0.447-0.101 0.367-0.423 0.807-0.617 1.141-0.31 0.534-0.6 1.084-0.901 1.624-0.186 0.334-0.412 0.677-0.561 1.026-0.047 0.111-0.083 0.228-0.078 0.35 0.005 0.106 0.042 0.186 0.124 0.255 0.115 0.098 0.268 0.175 0.425 0.154 0.104-0.014 0.188-0.068 0.252-0.149 0.221-0.275 0.352-0.657 0.514-0.968l1.113-2.149c0.132-0.257 0.248-0.572 0.433-0.794 0.098-0.117 0.189-0.173 0.345-0.186 0.123-0.010 0.243 0.021 0.338 0.101 0.113 0.095 0.165 0.248 0.143 0.391-0.043 0.276-0.289 0.611-0.42 0.863l-1.011 1.982c-0.18 0.357-0.392 0.723-0.537 1.095-0.034 0.087-0.067 0.184-0.055 0.278 0.015 0.11 0.096 0.207 0.186 0.269 0.1 0.070 0.235 0.116 0.358 0.089 0.141-0.031 0.24-0.133 0.319-0.246 0.18-0.257 0.299-0.595 0.431-0.88l0.863-1.829c0.163-0.347 0.311-0.755 0.527-1.070 0.078-0.113 0.162-0.204 0.305-0.226 0.145-0.022 0.292 0.039 0.402 0.13 0.091 0.076 0.16 0.165 0.164 0.286 0.011 0.311-0.56 1.39-0.715 1.737l-0.611 1.367c-0.3 0.674-0.557 1.349-1.063 1.907-0.499 0.549-1.066 0.782-1.75 1.027-0.144 0.052-0.366 0.103-0.488 0.19-0.242 0.173-0.411 0.493-0.553 0.745-0.109 0.194-0.248 0.405-0.317 0.617-0.101 0.312-0.034 1.267-0.034 1.644l-0.001 4.867 0.003 1.488c0 0.291 0.018 0.596-0.014 0.886-0.012 0.106-0.054 0.224-0.133 0.3-0.237 0.23-1.11 0.149-1.446 0.147l-2.285-0.003c0.132-0.349 0.294-0.693 0.466-1.025 0.297-0.031 0.601-0.017 0.9-0.018l1.474 0.001 0-6.36c-0.191 0.452-0.434 0.895-0.654 1.334-0.391 0.779-0.778 1.56-1.16 2.343-0.462 0.952-0.931 1.901-1.407 2.846-0.199 0.395-0.376 0.811-0.603 1.192-0.092 0.154-0.203 0.293-0.357 0.392-0.209 0.133-0.462 0.181-0.706 0.133-0.119-0.024-0.231-0.073-0.329-0.142s-0.182-0.158-0.244-0.26c-0.132-0.213-0.166-0.451-0.094-0.69 0.117-0.39 0.365-0.767 0.56-1.125l0.929-1.701c1.125-2.061 2.26-4.12 3.349-6.2 0.257-0.49 0.838-1.419 0.978-1.881 0.152-0.503-0.168-1.104-0.261-1.599-0.084-0.445-0.074-0.873 0.041-1.311 0.048-0.187 0.116-0.369 0.203-0.543 0.149-0.293 0.328-0.573 0.494-0.857l0.858-1.482 0.693-1.201c0.137-0.237 0.267-0.492 0.432-0.71 0.052-0.068 0.116-0.11 0.189-0.153z">
            </path>
            <path fill="#fff" style="fill: var(--color1, #fff)"
                d="M11.341 5.63c0.795-0.042 1.607-0.006 2.404-0.005l8.71-0c0.672-0 1.37-0.038 2.040 0.004 0.137 0.009 0.293 0.047 0.396 0.141 0.091 0.083 0.13 0.229 0.147 0.345 0.035 0.236 0.014 0.494 0.014 0.732l-0.006 1.354c-0.332 0.533-0.695 1.051-1.043 1.575 0.031-0.351 0.009-0.716 0.009-1.069l-0-1.984c-3.973 0.003-7.951 0.040-11.923-0.002-0.040 1.625-0.003 3.261-0.003 4.887l0.002 8.989 7.013-0.005c0.307-0.001 0.634-0.022 0.938 0.016-0.113 0.35-0.328 0.701-0.495 1.031l-7.181-0.012c-0.379 0.001-0.773-0.017-1.148 0.038-0.323 0.046-0.627 0.177-0.88 0.38-0.309 0.247-0.534 0.604-0.566 1-0.028 0.349 0.11 0.686 0.337 0.949 0.213 0.247 0.54 0.434 0.863 0.495 0.472 0.089 1.173 0.026 1.67 0.027l3.377 0.003c0.628 0 1.267-0.026 1.893 0.020-0.111 0.325-0.213 0.677-0.276 1.013-0.566-0.050-1.169-0.009-1.741-0.009l-3.382-0.001c-0.589 0.002-1.258 0.069-1.833-0.054-0.403-0.086-0.782-0.296-1.097-0.555-0.509-0.417-0.829-1.061-0.881-1.708-0.029-0.362-0.008-0.737-0.006-1.1l0.001-1.762-0-6.094-0.001-4.225c-0-0.543-0.051-1.499 0.023-2.012 0.069-0.509 0.288-0.987 0.628-1.375 0.502-0.589 1.22-0.957 1.998-1.024zM11.027 6.766c-0.559 0.227-0.97 0.511-1.208 1.079-0.082 0.196-0.104 0.437-0.111 0.648-0.035 1.034-0.003 2.081-0.002 3.116l0.001 5.978 0 2.65c0 0.3-0.056 0.71 0.010 0.996l0.024 0.008 0.037-0.024c0.422-0.312 0.779-0.482 1.297-0.59-0.040-1.477-0.005-2.966-0.003-4.444 0.002-1.662-0.027-3.326-0.008-4.987 0.011-1.087 0.013-2.174 0.007-3.261-0-0.262 0.043-0.944-0.008-1.159l-0.036-0.010z">
            </path>
            <path fill="#fff" style="fill: var(--color1, #fff)"
                d="M36.991 20.168v-7.394h-2.907v-1.378h7.444v1.378h-2.907v7.394h-1.629zM45.992 20.168v-1.353l-0.088-0.288v-2.368c0-0.46-0.138-0.815-0.414-1.065-0.276-0.259-0.693-0.389-1.253-0.389-0.376 0-0.748 0.059-1.115 0.175-0.359 0.117-0.664 0.28-0.915 0.489l-0.614-1.14c0.359-0.276 0.785-0.48 1.278-0.614 0.501-0.142 1.019-0.213 1.554-0.213 0.969 0 1.717 0.234 2.243 0.702 0.535 0.459 0.802 1.174 0.802 2.143v3.922h-1.479zM43.887 20.256c-0.501 0-0.94-0.084-1.316-0.251-0.376-0.175-0.668-0.413-0.877-0.714-0.2-0.309-0.301-0.656-0.301-1.040 0-0.376 0.088-0.714 0.263-1.015 0.184-0.301 0.48-0.539 0.89-0.714s0.952-0.263 1.629-0.263h1.942v1.040h-1.83c-0.535 0-0.894 0.088-1.078 0.263-0.184 0.167-0.276 0.376-0.276 0.627 0 0.284 0.113 0.51 0.338 0.677s0.539 0.251 0.94 0.251c0.384 0 0.727-0.088 1.028-0.263 0.309-0.175 0.53-0.434 0.664-0.777l0.263 0.94c-0.15 0.393-0.422 0.698-0.815 0.915-0.384 0.217-0.873 0.326-1.466 0.326zM51.173 20.256c-0.56 0-1.099-0.071-1.617-0.213-0.51-0.15-0.915-0.33-1.215-0.539l0.602-1.191c0.301 0.192 0.66 0.351 1.078 0.476s0.835 0.188 1.253 0.188c0.493 0 0.848-0.067 1.065-0.201 0.226-0.134 0.338-0.313 0.338-0.539 0-0.184-0.075-0.322-0.226-0.414-0.15-0.1-0.347-0.175-0.589-0.226s-0.514-0.096-0.815-0.138c-0.292-0.042-0.589-0.096-0.89-0.163-0.292-0.075-0.56-0.18-0.802-0.313-0.242-0.142-0.439-0.33-0.589-0.564s-0.226-0.543-0.226-0.927c0-0.426 0.121-0.794 0.363-1.103 0.242-0.318 0.581-0.56 1.015-0.727 0.443-0.175 0.965-0.263 1.566-0.263 0.451 0 0.906 0.050 1.366 0.15s0.84 0.242 1.14 0.426l-0.602 1.191c-0.318-0.192-0.639-0.322-0.965-0.389-0.317-0.075-0.635-0.113-0.952-0.113-0.476 0-0.831 0.071-1.065 0.213-0.226 0.142-0.338 0.322-0.338 0.539 0 0.201 0.075 0.351 0.226 0.451s0.347 0.18 0.589 0.238 0.51 0.109 0.802 0.15c0.301 0.033 0.597 0.088 0.89 0.163s0.56 0.18 0.802 0.313c0.251 0.125 0.451 0.305 0.602 0.539s0.226 0.539 0.226 0.915c0 0.418-0.125 0.781-0.376 1.090-0.242 0.309-0.589 0.551-1.040 0.727-0.451 0.167-0.99 0.251-1.617 0.251zM57.697 20.256c-0.735 0-1.303-0.188-1.704-0.564-0.401-0.384-0.602-0.948-0.602-1.692v-6.003h1.566v5.965c0 0.317 0.079 0.564 0.238 0.739 0.167 0.175 0.397 0.263 0.689 0.263 0.351 0 0.643-0.092 0.877-0.276l0.439 1.115c-0.184 0.15-0.409 0.263-0.677 0.338s-0.543 0.113-0.827 0.113zM54.289 14.779v-1.253h4.461v1.253h-4.461zM63.039 20.256c-0.743 0-1.395-0.146-1.955-0.439-0.551-0.301-0.982-0.71-1.291-1.228-0.301-0.518-0.451-1.107-0.451-1.767 0-0.668 0.146-1.257 0.439-1.767 0.301-0.518 0.71-0.923 1.228-1.216 0.526-0.292 1.124-0.439 1.792-0.439 0.652 0 1.232 0.142 1.742 0.426s0.911 0.685 1.203 1.203 0.439 1.128 0.439 1.83c0 0.067-0.004 0.142-0.013 0.226 0 0.084-0.004 0.163-0.013 0.238h-5.577v-1.040h4.749l-0.614 0.326c0.008-0.384-0.071-0.723-0.238-1.015s-0.397-0.522-0.689-0.689c-0.284-0.167-0.614-0.251-0.99-0.251-0.384 0-0.723 0.084-1.015 0.251-0.284 0.167-0.51 0.401-0.677 0.702-0.159 0.292-0.238 0.639-0.238 1.040v0.251c0 0.401 0.092 0.756 0.276 1.065s0.443 0.547 0.777 0.714c0.334 0.167 0.718 0.251 1.153 0.251 0.376 0 0.714-0.058 1.015-0.175s0.568-0.301 0.802-0.551l0.84 0.965c-0.301 0.351-0.681 0.622-1.14 0.815-0.451 0.184-0.969 0.276-1.554 0.276zM70.321 20.256c-0.685 0-1.295-0.146-1.83-0.439-0.535-0.301-0.957-0.71-1.266-1.228s-0.464-1.107-0.464-1.767c0-0.668 0.155-1.257 0.464-1.767 0.309-0.518 0.731-0.923 1.266-1.216s1.145-0.439 1.83-0.439c0.693 0 1.307 0.146 1.842 0.439 0.543 0.292 0.965 0.693 1.265 1.203 0.309 0.51 0.464 1.103 0.464 1.779 0 0.66-0.155 1.249-0.464 1.767-0.301 0.518-0.723 0.927-1.265 1.228-0.535 0.292-1.149 0.439-1.842 0.439zM70.321 18.915c0.384 0 0.726-0.084 1.027-0.251s0.534-0.409 0.701-0.727c0.176-0.317 0.264-0.689 0.264-1.115 0-0.434-0.088-0.806-0.264-1.115-0.167-0.318-0.401-0.56-0.701-0.727s-0.639-0.251-1.015-0.251c-0.385 0-0.727 0.084-1.028 0.251-0.292 0.167-0.526 0.409-0.702 0.727-0.175 0.309-0.263 0.681-0.263 1.115 0 0.426 0.088 0.798 0.263 1.115s0.409 0.56 0.702 0.727c0.301 0.167 0.639 0.251 1.015 0.251zM75.014 20.168v-6.692h1.491v1.842l-0.175-0.539c0.2-0.451 0.513-0.794 0.94-1.028 0.434-0.234 0.973-0.351 1.617-0.351v1.491c-0.067-0.017-0.13-0.025-0.189-0.025-0.058-0.008-0.117-0.013-0.175-0.013-0.593 0-1.065 0.175-1.416 0.526-0.351 0.343-0.527 0.856-0.527 1.541v3.246h-1.567zM83.485 20.168v-1.353l-0.088-0.288v-2.368c0-0.46-0.138-0.815-0.414-1.065-0.275-0.259-0.693-0.389-1.253-0.389-0.376 0-0.748 0.059-1.115 0.175-0.36 0.117-0.664 0.28-0.915 0.489l-0.614-1.14c0.359-0.276 0.785-0.48 1.278-0.614 0.502-0.142 1.020-0.213 1.554-0.213 0.969 0 1.717 0.234 2.243 0.702 0.534 0.459 0.802 1.174 0.802 2.143v3.922h-1.479zM81.379 20.256c-0.502 0-0.94-0.084-1.316-0.251-0.376-0.175-0.669-0.413-0.877-0.714-0.2-0.309-0.301-0.656-0.301-1.040 0-0.376 0.088-0.714 0.263-1.015 0.184-0.301 0.481-0.539 0.89-0.714s0.952-0.263 1.629-0.263h1.942v1.040h-1.83c-0.535 0-0.894 0.088-1.078 0.263-0.184 0.167-0.275 0.376-0.275 0.627 0 0.284 0.113 0.51 0.338 0.677s0.538 0.251 0.94 0.251c0.384 0 0.727-0.088 1.027-0.263 0.309-0.175 0.531-0.434 0.664-0.777l0.263 0.94c-0.15 0.393-0.422 0.698-0.815 0.915-0.384 0.217-0.873 0.326-1.466 0.326zM95.043 13.401c0.535 0 1.007 0.104 1.416 0.313 0.417 0.209 0.744 0.53 0.977 0.965 0.234 0.426 0.351 0.977 0.351 1.654v3.835h-1.566v-3.634c0-0.593-0.129-1.036-0.389-1.328s-0.63-0.439-1.115-0.439c-0.342 0-0.648 0.075-0.915 0.226-0.259 0.15-0.464 0.372-0.614 0.664-0.142 0.292-0.213 0.664-0.213 1.115v3.396h-1.567v-3.634c0-0.593-0.129-1.036-0.388-1.328s-0.631-0.439-1.115-0.439c-0.343 0-0.648 0.075-0.915 0.226-0.259 0.15-0.464 0.372-0.614 0.664-0.142 0.292-0.213 0.664-0.213 1.115v3.396h-1.567v-6.692h1.491v1.779l-0.264-0.526c0.226-0.434 0.552-0.764 0.977-0.99 0.435-0.226 0.927-0.338 1.479-0.338 0.627 0 1.169 0.155 1.629 0.464 0.467 0.309 0.777 0.777 0.927 1.404l-0.614-0.213c0.217-0.501 0.577-0.902 1.078-1.203s1.082-0.451 1.742-0.451zM103.537 20.168v-1.353l-0.088-0.288v-2.368c0-0.46-0.138-0.815-0.414-1.065-0.275-0.259-0.693-0.389-1.253-0.389-0.376 0-0.748 0.059-1.115 0.175-0.36 0.117-0.664 0.28-0.915 0.489l-0.614-1.14c0.36-0.276 0.785-0.48 1.279-0.614 0.501-0.142 1.019-0.213 1.553-0.213 0.969 0 1.717 0.234 2.243 0.702 0.534 0.459 0.802 1.174 0.802 2.143v3.922h-1.479zM101.432 20.256c-0.502 0-0.94-0.084-1.316-0.251-0.376-0.175-0.669-0.413-0.877-0.714-0.2-0.309-0.301-0.656-0.301-1.040 0-0.376 0.088-0.714 0.263-1.015 0.184-0.301 0.481-0.539 0.89-0.714s0.952-0.263 1.629-0.263h1.942v1.040h-1.83c-0.534 0-0.894 0.088-1.078 0.263-0.184 0.167-0.275 0.376-0.275 0.627 0 0.284 0.113 0.51 0.338 0.677s0.539 0.251 0.94 0.251c0.384 0 0.727-0.088 1.027-0.263 0.31-0.175 0.531-0.434 0.664-0.777l0.263 0.94c-0.15 0.393-0.422 0.698-0.815 0.915-0.384 0.217-0.873 0.326-1.466 0.326z">
            </path>
        </symbol>
        <symbol id="icon-saved-icon" viewBox="0 0 28 32">
            <path stroke-linejoin="round" stroke-linecap="round" stroke-miterlimit="4" stroke-width="1.8824"
                d="M14.112 0.941c2.379 0 4.562 0.228 6.292 0.491 2.191 0.333 3.908 1.834 4.397 3.932 0.59 2.532 1.169 6.385 1.070 11.559-0.11 5.709-0.943 9.829-1.746 12.516-0.217 0.727-0.72 1.101-1.289 1.197-0.594 0.1-1.328-0.098-1.925-0.691-1.086-1.081-2.329-2.248-3.476-3.151-0.572-0.45-1.142-0.852-1.671-1.145-0.499-0.277-1.083-0.528-1.653-0.528-0.56 0-1.165 0.247-1.693 0.518-0.563 0.289-1.186 0.686-1.824 1.136-1.277 0.902-2.692 2.070-3.938 3.153-0.658 0.571-1.432 0.706-2.042 0.54-0.589-0.16-1.086-0.613-1.239-1.401-0.525-2.707-1.024-6.705-1.024-12.127 0-5.409 0.557-9.224 1.112-11.68 0.46-2.035 2.12-3.485 4.255-3.814 1.746-0.27 3.967-0.505 6.392-0.505z">
            </path>
        </symbol>
        <symbol id="icon-delete" viewBox="0 0 32 32">
            <path fill="none" stroke="#fff" style="stroke: var(--color1, #fff)" stroke-linejoin="round"
                stroke-linecap="round" stroke-miterlimit="4" stroke-width="2"
                d="M16 24.769v-13.154M1.75 6.135h3.288M30.25 6.135h-3.288M21.481 6.135h-10.962M21.481 6.135v-2.192c0-1.211-0.982-2.192-2.192-2.192h-6.577c-1.211 0-2.192 0.982-2.192 2.192v2.192M21.481 6.135h5.481M10.519 6.135h-5.481M26.962 6.135v19.731c0 2.422-1.963 4.385-4.385 4.385h-13.154c-2.422 0-4.385-1.963-4.385-4.385v-19.731">
            </path>
        </symbol>
        <symbol id="icon-filter" viewBox="0 0 34 32">
            <path stroke-linejoin="miter" stroke-linecap="butt" stroke-miterlimit="4" stroke-width="2.1333"
                d="M5.72 2.4l22.694 0c1.686 0 3.053 1.367 3.053 3.053 0 0.779-0.298 1.529-0.833 2.096l-10.244 10.851v7.512c0 2.449-2.558 4.056-4.765 2.994-1.15-0.554-1.881-1.718-1.881-2.994v-7.512l-10.244-10.851c-0.535-0.567-0.833-1.317-0.833-2.096 0-1.686 1.367-3.053 3.053-3.053z">
            </path>
        </symbol>
        <symbol id="icon-clock" viewBox="0 0 32 32">
            <path stroke-linejoin="round" stroke-linecap="round" stroke-miterlimit="4" stroke-width="1"
                d="M16 7.231v9.865l6.577 5.481M30.25 16c0 7.87-6.38 14.25-14.25 14.25s-14.25-6.38-14.25-14.25c0-7.87 6.38-14.25 14.25-14.25s14.25 6.38 14.25 14.25z">
            </path>
        </symbol>
        <symbol id="icon-close" viewBox="0 0 32 32">
            <path stroke-linejoin="round" stroke-linecap="round" stroke-miterlimit="4" stroke-width="2"
                d="M2.5 2.5l13.5 13.5M16 16l-13.5 13.5M16 16l13.5 13.5M16 16l13.5-13.5"></path>
        </symbol>
        <symbol id="icon-chevron-down" viewBox="0 0 50 32">
            <path stroke-linejoin="round" stroke-linecap="round" stroke-miterlimit="4" stroke-width="4.5714"
                d="M45.714 5.714l-20.571 20.571-20.571-20.571"></path>
        </symbol>
        <symbol id="icon-burger-regular" viewBox="0 0 46 32">
            <path fill="none" stroke="#fff" style="stroke: var(--color1, #fff)" stroke-linejoin="miter"
                stroke-linecap="round" stroke-miterlimit="4" stroke-width="3.0476"
                d="M3.429 1.905h38.857M3.429 29.334h38.857M3.429 15.619h38.857"></path>
        </symbol>
        <symbol id="icon-eye-crossed" viewBox="0 0 37 32">
            <path stroke-linejoin="miter" stroke-linecap="round" stroke-miterlimit="4" stroke-width="2.2857"
                d="M23.796 28.543c-1.861 0.864-3.928 1.427-6.103 1.427-8.193 0-14.835-7.98-14.835-10.007 0-1.149 2.134-4.211 5.475-6.648M30.747 23.17c1.135-1.366 1.78-2.575 1.78-3.207 0-2.028-6.642-10.007-14.835-10.007 3.605 0 6.527 2.899 6.527 6.475M17.692 22.906c-3.605 0-6.527-2.899-6.527-6.475M33.714 9.956c-4.518-3.74-9.794-5.887-15.428-5.887-2.031 0-4.015 0.279-5.934 0.811M2.858 9.956c0.419-0.347 0.844-0.68 1.276-0.998M2.857 1.714l28.653 28.928">
            </path>
        </symbol>
        <symbol id="icon-Box" viewBox="0 0 32 32">
            <path fill="none" stroke="#595d62" style="stroke: var(--color2, #595d62)" stroke-linejoin="miter"
                stroke-linecap="butt" stroke-miterlimit="4" stroke-width="3"
                d="M16 1.5c3.814 0 6.523 0.003 8.578 0.279 2.012 0.271 3.171 0.779 4.018 1.625s1.354 2.005 1.625 4.018c0.276 2.055 0.279 4.765 0.279 8.578s-0.003 6.523-0.279 8.578c-0.271 2.012-0.779 3.171-1.625 4.018s-2.005 1.354-4.018 1.625c-2.055 0.276-4.765 0.279-8.578 0.279s-6.523-0.003-8.578-0.279c-2.012-0.271-3.171-0.779-4.018-1.625s-1.354-2.005-1.625-4.018c-0.276-2.055-0.279-4.765-0.279-8.578s0.003-6.523 0.279-8.578c0.271-2.012 0.779-3.171 1.625-4.018s2.005-1.354 4.018-1.625c2.055-0.276 4.765-0.279 8.578-0.279z">
            </path>
        </symbol>
        <symbol id="icon-check-alternative" viewBox="0 0 48 32">
            <path fill="none" stroke="#fff" style="stroke: var(--color1, #fff)" stroke-linejoin="round"
                stroke-linecap="round" stroke-miterlimit="4" stroke-width="6" d="M6 13.882l13.333 14.118 22.667-24">
            </path>
        </symbol>
        <symbol id="icon-eye" viewBox="0 0 37 32">
            <path fill="none" stroke-linejoin="miter" stroke-linecap="round" stroke-miterlimit="4" stroke-width="2.2857"
                d="M17.692 8.987c-8.193 0-14.835 7.922-14.835 9.935s6.642 9.935 14.835 9.935c8.193 0 14.835-7.922 14.835-9.935s-6.642-9.935-14.835-9.935zM17.692 8.987c-3.605 0-6.527 2.878-6.527 6.429s2.922 6.429 6.527 6.429c3.605 0 6.528-2.878 6.528-6.429s-2.923-6.429-6.528-6.429zM33.714 8.987c-4.519-3.713-9.794-5.844-15.429-5.844s-10.91 2.131-15.429 5.844">
            </path>
        </symbol>
        <symbol id="icon-camera" viewBox="0 0 52 52">
            <path stroke-linejoin="round" stroke-linecap="round" stroke-miterlimit="4" stroke-width="2.5625"
                d="M35.363 29.7452C35.363 34.9162 31.171 39.1082 26 39.1082C20.829 39.1082 16.637 34.9162 16.637 29.7452C16.637 24.5741 20.829 20.3822 26 20.3822C31.171 20.3822 35.363 24.5741 35.363 29.7452Z">
            </path>
            <path stroke-linejoin="round" stroke-linecap="round" stroke-miterlimit="4" stroke-width="2.5625"
                d="M1.65625 42.6562L1.65625 19.8358C1.65625 16.0007 4.76517 12.8918 8.60022 12.8918C11.2304 12.8918 13.6348 11.4058 14.8111 9.05327L16.3848 5.90579C17.687 3.30138 20.3489 1.65624 23.2608 1.65625L28.7393 1.65627C31.6511 1.65628 34.313 3.30143 35.6152 5.90582L37.1889 9.05334C38.3652 11.4058 40.7696 12.8919 43.3998 12.8919C47.2348 12.8919 50.3438 16.0008 50.3438 19.8358V42.6562C50.3438 46.9019 46.9019 50.3437 42.6563 50.3437H9.34375C5.09806 50.3437 1.65625 46.9019 1.65625 42.6562Z">
            </path>
        </symbol>
        <symbol id="icon-filter-crossed" viewBox="0 0 29 32">
            <path stroke-linejoin="miter" stroke-linecap="round" stroke-miterlimit="4" stroke-width="1.6"
                d="M1.448 9.835l9.017 9.21v8.043c0 1.010 0.477 1.961 1.286 2.565l0.176 0.131c2.111 1.575 5.114 0.069 5.114-2.565v-1.742M5.981 1.6l18.859 0.083c1.747 0.008 3.16 1.426 3.16 3.174 0 0.73-0.252 1.437-0.712 2.003l-7.060 8.676M0.8 2.867l24.61 22.805">
            </path>
        </symbol>
    </defs>
</svg>